<svg width="21" height="20" viewBox="0 0 21 20" xmlns="http://www.w3.org/2000/svg"><title>linkedin</title><g fill="#333" opacity=".5"><path d="M20.77 10c0-5.523-4.478-10-10-10-5.524 0-10 4.477-10 10s4.476 10 10 10c5.522 0 10-4.477 10-10zM1.677 10A9.09 9.09 0 0 1 10.77.91 9.09 9.09 0 0 1 19.86 10a9.09 9.09 0 0 1-9.09 9.09A9.09 9.09 0 0 1 1.677 10z"/><path d="M16.234 10.526v3.87h-2.243v-3.61c0-.907-.324-1.526-1.136-1.526-.62 0-.989.417-1.15.82-.06.144-.075.345-.075.547v3.768H9.386s.03-6.114 0-6.747h2.243v.956l-.014.022h.014v-.022c.299-.459.83-1.115 2.022-1.115 1.477 0 2.583.965 2.583 3.037zM7.04 4.396c-.768 0-1.27.503-1.27 1.165 0 .647.488 1.166 1.24 1.166h.015c.783 0 1.27-.518 1.27-1.166-.016-.662-.487-1.166-1.255-1.166zm-1.137 10h2.243V7.647H5.902v6.747z"/></g></svg>