<svg width="21" height="20" viewBox="0 0 21 20" xmlns="http://www.w3.org/2000/svg"><title>Twitter</title><g fill="#333" opacity=".5"><path d="M14.673 8.012a5.95 5.95 0 0 0-.007-.3 4.542 4.542 0 0 0 1.103-1.186 4.234 4.234 0 0 1-1.269.348c.456-.281.806-.73.972-1.27-.427.26-.9.445-1.403.541a2.198 2.198 0 0 0-1.613-.76c-1.22-.02-2.209 1.01-2.209 2.302 0 .184.02.362.058.534-1.838-.118-3.466-1.075-4.555-2.516-.19.345-.299.749-.299 1.181 0 .819.39 1.546.983 1.975a2.115 2.115 0 0 1-1.001-.306v.03c0 1.143.762 2.101 1.772 2.325a2.093 2.093 0 0 1-.997.034c.281.937 1.097 1.621 2.064 1.644A4.264 4.264 0 0 1 5 13.554a5.96 5.96 0 0 0 3.387 1.061c4.063.001 6.285-3.535 6.285-6.603z"/><path d="M20.385 10c0-5.523-4.478-10-10-10-5.523 0-10 4.477-10 10s4.477 10 10 10c5.522 0 10-4.477 10-10zM1.294 10a9.09 9.09 0 0 1 9.09-9.09A9.09 9.09 0 0 1 19.477 10a9.09 9.09 0 0 1-9.091 9.09A9.09 9.09 0 0 1 1.294 10z"/></g></svg>