<svg width="20" height="20" viewBox="0 0 20 20" xmlns="http://www.w3.org/2000/svg"><title>Facebook</title><g fill="#333" opacity=".5"><path d="M20 10c0-5.523-4.477-10-10-10S0 4.477 0 10s4.477 10 10 10 10-4.477 10-10zM.91 10A9.09 9.09 0 0 1 10 .91 9.09 9.09 0 0 1 19.09 10 9.09 9.09 0 0 1 10 19.09 9.09 9.09 0 0 1 .91 10z"/><path d="M10.384 15.772V10h1.904l.301-1.913h-2.205v-.959c0-.499.163-.975.88-.975h1.431v-1.91h-2.032c-1.71 0-2.176 1.126-2.176 2.686v1.157H7.315V10h1.172v5.772h1.897z"/></g></svg>