<?xml version="1.0" encoding="UTF-8"?>
<svg width="29px" height="29px" viewBox="0 0 29 29" version="1.1" xmlns="http://www.w3.org/2000/svg" xmlns:xlink="http://www.w3.org/1999/xlink">
    <!-- Generator: Sketch 47 (45396) - http://www.bohemiancoding.com/sketch -->
    <title>Group Copy 2</title>
    <desc>Created with Sketch.</desc>
    <defs></defs>
    <g id="High-Fideility" stroke="none" stroke-width="1" fill="none" fill-rule="evenodd">
        <g id="05-Blog-Detail" transform="translate(-136.000000, -307.000000)">
            <g id="Share" transform="translate(127.000000, 179.000000)">
                <g id="Group-Copy-2" transform="translate(9.000000, 128.000000)">
                    <circle id="Oval-3" stroke="#333333" cx="14.5" cy="14.5" r="14"></circle>
                    <path d="M20.3109155,11.1831574 C19.8578047,11.3839342 19.3716233,11.5200988 18.8607999,11.5808891 C19.3823853,11.2685494 19.7816458,10.7731348 19.9708762,10.1846238 C19.4816171,10.4738704 18.9415653,10.6839006 18.3661296,10.7977567 C17.9053345,10.3061842 17.2498979,10 16.522909,10 C15.1281926,10 13.9973367,11.130856 13.9973367,12.5248079 C13.9973367,12.7225071 14.0196452,12.9155997 14.0627335,13.1002436 C11.9641213,12.9948362 10.1032187,11.9893828 8.85774231,10.4615595 C8.64002784,10.833905 8.5161742,11.2677649 8.5161742,11.7308934 C8.5161742,12.6071222 8.96236515,13.380257 9.63934591,13.8325833 C9.22546111,13.8187436 8.83619817,13.7048876 8.49541458,13.5156371 L8.49541458,13.5471788 C8.49541458,14.7703467 9.36625235,15.7911888 10.5209457,16.0235276 C10.3093867,16.0804556 10.0863013,16.1119973 9.85551146,16.1119973 C9.69243179,16.1119973 9.53472307,16.0958443 9.38009209,16.0650669 C9.70164488,17.0689915 10.6340373,17.7990381 11.7387426,17.8190534 C10.8748247,18.4960341 9.7855081,18.8983724 8.60235074,18.8983724 C8.39849613,18.8983724 8.19769914,18.8860615 8,18.8637529 C9.11778065,19.5815087 10.444807,20 11.8710651,20 C16.5167938,20 19.056226,16.1520079 19.056226,12.8148391 L19.0477572,12.4878953 C19.5439362,12.1339961 19.9731895,11.6893541 20.3109155,11.1831574 Z" id="Shape" fill="#010002" fill-rule="nonzero"></path>
                </g>
            </g>
        </g>
    </g>
</svg>