<?xml version="1.0" encoding="UTF-8"?>
<svg width="27px" height="22px" viewBox="0 0 27 22" version="1.1" xmlns="http://www.w3.org/2000/svg" xmlns:xlink="http://www.w3.org/1999/xlink">
    <!-- Generator: Sketch 46.2 (44496) - http://www.bohemiancoding.com/sketch -->
    <title>back-1</title>
    <desc>Created with Sketch.</desc>
    <defs></defs>
    <g id="Page-1" stroke="none" stroke-width="1" fill="none" fill-rule="evenodd">
        <g id="Blog-details" transform="translate(-142.000000, -131.000000)" stroke="#979797" stroke-width="2" fill="#362B36" fill-rule="nonzero">
            <g id="back-1" transform="translate(143.000000, 132.000000)">
                <path d="M23.8037037,10.2348148 L0.37037037,10.2348148 C0.165925926,10.2348148 0,10.0688889 0,9.86444444 C0,9.66 0.165925926,9.49407407 0.37037037,9.49407407 L23.8037037,9.49407407 C24.0081481,9.49407407 24.1740741,9.66 24.1740741,9.86444444 C24.1740741,10.0688889 24.0081481,10.2348148 23.8037037,10.2348148 Z" id="Shape"></path>
                <path d="M9.65703704,19.5207407 C9.56222222,19.5207407 9.46740741,19.4844444 9.39481481,19.4125926 L0.108148148,10.1251852 C0.0392592593,10.0555556 0,9.96148148 0,9.86296296 C0,9.76444444 0.0392592593,9.67037037 0.108148148,9.60074074 L9.39555556,0.317777778 C9.54,0.173333333 9.77481481,0.173333333 9.91925926,0.317777778 C10.0637037,0.462222222 10.0637037,0.697037037 9.91925926,0.841481481 L0.894074074,9.86296296 L9.91925926,18.8881481 C10.0637037,19.0325926 10.0637037,19.2674074 9.91925926,19.4118519 C9.84666667,19.4844444 9.75185185,19.5207407 9.65703704,19.5207407 Z" id="Shape"></path>
            </g>
        </g>
    </g>
</svg>