<?xml version="1.0" encoding="UTF-8"?>
<svg width="16px" height="14px" viewBox="0 0 16 14" version="1.1" xmlns="http://www.w3.org/2000/svg" xmlns:xlink="http://www.w3.org/1999/xlink">
    <!-- Generator: Sketch 46.2 (44496) - http://www.bohemiancoding.com/sketch -->
    <title>Group 12</title>
    <desc>Created with Sketch.</desc>
    <defs></defs>
    <g id="Page-1" stroke="none" stroke-width="1" fill="none" fill-rule="evenodd" opacity="0.5">
        <g id="STYLE-CRAZE-1" transform="translate(-1184.000000, -3773.000000)" fill-rule="nonzero" fill="#FFFFFF">
            <g id="Group-12" transform="translate(1184.000000, 3773.000000)">
                <path d="M12.2755122,6.2463233 L6.54695935,6.2463233 L6.54695935,8.18033131 L10.0419512,8.18033131 C9.52058537,9.8617108 7.96995122,11.0813433 6.13772358,11.0813433 C3.87782114,11.0813433 2.0459187,9.22582472 2.0459187,6.93704986 C2.0459187,4.64817618 3.87788618,2.79278933 6.13772358,2.79278933 C7.27573984,2.79278933 8.30504065,3.26342935 9.04673171,4.02286296 L10.432813,2.49694717 C9.32582114,1.39832601 7.81004878,0.720675536 6.13772358,0.720675536 C2.74796748,0.720642599 0,3.50383816 0,6.93704986 C0,10.3702616 2.74796748,13.153523 6.1377561,13.153523 C9.10708943,13.153523 11.7067967,11.0177415 12.2755447,8.18036425 L12.2755447,6.24635624 L12.2755122,6.2463233 L12.2755122,6.2463233 Z" id="Shape"></path>
                <polygon id="Shape" points="15.9953821 6.24302958 14.8236423 6.24302958 14.8236423 5.05626841 13.8192195 5.05626841 13.8192195 6.24302958 12.6474797 6.24302958 12.6474797 7.26022991 13.8192195 7.26022991 13.8192195 8.44702402 14.8236423 8.44702402 14.8236423 7.26022991 15.9953821 7.26022991"></polygon>
            </g>
        </g>
    </g>
</svg>