<?xml version="1.0" encoding="UTF-8"?>
<svg width="16px" height="16px" viewBox="0 0 16 16" version="1.1" xmlns="http://www.w3.org/2000/svg" xmlns:xlink="http://www.w3.org/1999/xlink">
    <!-- Generator: Sketch 46.2 (44496) - http://www.bohemiancoding.com/sketch -->
    <title>thumbs-up-hand-symbol</title>
    <desc>Created with Sketch.</desc>
    <defs></defs>
    <g id="Page-1" stroke="none" stroke-width="1" fill="none" fill-rule="evenodd">
        <g id="Blog-details" transform="translate(-359.000000, -2378.000000)" fill-rule="nonzero" fill="#CCCCCC">
            <g id="thumbs-up-hand-symbol" transform="translate(359.000000, 2378.000000)">
                <path d="M15.4436761,8.88116629 C15.8101707,8.44417312 15.993488,7.92739863 15.993488,7.33073349 C15.993488,6.7896492 15.8033085,6.32145786 15.4242451,5.92583144 C15.0444114,5.53024146 14.5946608,5.33255581 14.0748884,5.33255581 L11.3061532,5.33255581 C11.3327615,5.23546241 11.3594398,5.15221868 11.3860481,5.08286105 C11.4124114,5.01350342 11.449453,4.93711162 11.4959125,4.85386788 C11.542407,4.7705877 11.5758425,4.70811845 11.5957637,4.66656948 C11.7156761,4.43083371 11.8074748,4.23646469 11.8708446,4.08397267 C11.9341094,3.93118907 11.9970941,3.72315262 12.0606039,3.45953531 C12.1240088,3.19606378 12.1555186,2.93233713 12.1555186,2.66871982 C12.1555186,2.50230524 12.153593,2.36690661 12.150442,2.26292483 C12.147326,2.15887016 12.1303457,2.00273349 12.1006214,1.7945877 C12.070442,1.58655125 12.0303895,1.41310251 11.9805339,1.27442369 C11.9304683,1.13570843 11.8504333,0.979498861 11.740674,0.8061959 C11.6306696,0.63256492 11.497453,0.49228246 11.340709,0.384692483 C11.184,0.277175399 10.9841575,0.187006834 10.7409365,0.114223235 C10.4974705,0.0413667426 10.2227396,0.00495671982 9.91600875,0.00495671982 C9.74277462,0.00495671982 9.5929628,0.0708883827 9.46622319,0.202715262 C9.33297155,0.341430524 9.21950109,0.514842825 9.12630197,0.722879271 C9.0329628,0.931025057 8.96794748,1.11139863 8.93125602,1.26407289 C8.89459956,1.41667426 8.85290153,1.62831891 8.80644201,1.89878815 C8.74625821,2.19028702 8.70147921,2.4 8.67129978,2.52832802 C8.64136543,2.65665604 8.58289716,2.82485649 8.49635011,3.03292938 C8.40962801,3.24114806 8.30645077,3.4075262 8.18646827,3.53246469 C7.96659956,3.76134852 7.63010941,4.17760364 7.17685777,4.78108428 C6.8502407,5.22500228 6.51375055,5.64468337 6.16724726,6.04012756 C5.82067396,6.43564465 5.56747484,6.64025513 5.40757987,6.65414123 C5.24110284,6.66799089 5.09780306,6.73909795 4.97782057,6.86749886 C4.85783807,6.99582688 4.79786433,7.14675171 4.79786433,7.32012756 L4.79786433,13.9901959 C4.79786433,14.1705695 4.8611291,14.3248474 4.98776368,14.4531754 C5.11432823,14.5816492 5.26428009,14.6492574 5.43754923,14.6562187 C5.67075711,14.66318 6.19721663,14.8156355 7.01692779,15.114205 C7.52997812,15.294287 7.93141357,15.431508 8.22130416,15.5250296 C8.51112473,15.6185513 8.91623632,15.7192164 9.43562363,15.8268793 C9.95550109,15.9343599 10.435221,15.9882642 10.8749234,15.9882642 L11.0449015,15.9882642 L11.8046389,15.9882642 L12.1644114,15.9882642 C13.0509234,15.9744146 13.7070284,15.7037631 14.1336718,15.1766743 C14.5200525,14.6979499 14.6832385,14.070123 14.6234748,13.2931572 C14.883326,13.0365011 15.0633873,12.7105968 15.1632035,12.3150797 C15.2763239,11.8921549 15.2763239,11.486287 15.1632035,11.097877 C15.4696893,10.674697 15.6129891,10.199508 15.5928578,9.67227335 C15.593698,9.45005923 15.5438425,9.18651481 15.4436761,8.88116629 Z" id="Shape"></path>
                <path d="M3.51859956,6.66474715 L0.639859956,6.66474715 C0.466485777,6.66474715 0.316533917,6.73067882 0.189934354,6.86250569 C0.0633347921,6.99425968 0,7.15035991 0,7.33073349 L0,13.9906697 C0,14.1707882 0.0633347921,14.3269613 0.189969365,14.4588975 C0.316673961,14.5905057 0.466625821,14.6564738 0.639894967,14.6564738 L3.51859956,14.6564738 C3.6918337,14.6564738 3.84171554,14.5905057 3.96838512,14.4588975 C4.09498468,14.3269613 4.15828446,14.1708246 4.15828446,13.9906697 L4.15828446,7.33073349 C4.15828446,7.15035991 4.09494967,6.99429613 3.96838512,6.86250569 C3.84175055,6.73064237 3.69186871,6.66474715 3.51859956,6.66474715 Z M2.36901532,13.1319544 C2.24241575,13.2602825 2.09249891,13.3244282 1.91922976,13.3244282 C1.73927352,13.3244282 1.58764114,13.2602825 1.46443764,13.1319544 C1.34116411,13.0036264 1.27954486,12.8458497 1.27954486,12.6585148 C1.27954486,12.4781777 1.3411291,12.322041 1.46443764,12.190287 C1.58767615,12.0584601 1.73927352,11.9924556 1.91922976,11.9924556 C2.09249891,11.9924556 2.24241575,12.0584601 2.36901532,12.190287 C2.49564989,12.3220046 2.55898468,12.4781412 2.55898468,12.6585148 C2.55898468,12.8458497 2.49578993,13.00359 2.36901532,13.1319544 Z" id="Shape"></path>
            </g>
        </g>
    </g>
</svg>