<?xml version="1.0" encoding="UTF-8"?>
<svg width="33px" height="33px" viewBox="0 0 33 33" version="1.1" xmlns="http://www.w3.org/2000/svg" xmlns:xlink="http://www.w3.org/1999/xlink">
    <!-- Generator: Sketch 46.2 (44496) - http://www.bohemiancoding.com/sketch -->
    <title>Group</title>
    <desc>Created with Sketch.</desc>
    <defs></defs>
    <g id="Page-1" stroke="none" stroke-width="1" fill="none" fill-rule="evenodd">
        <g id="Blog-details" transform="translate(-1135.000000, -130.000000)">
            <g id="Group" transform="translate(1135.000000, 130.000000)">
                <circle id="Oval-2" fill="#F3647A" cx="16.5" cy="16.5" r="16.5"></circle>
                <path d="M13.6466667,17 C13.6466667,17.0546667 13.6344444,17.106 13.6311111,17.1606667 L19.3637778,20.0268889 C19.8551111,19.6111111 20.4826667,19.3515556 21.1762222,19.3515556 C22.736,19.3515556 24,20.6155556 24,22.1753333 C24,23.736 22.736,25 21.1762222,25 C19.6155556,25 18.3533333,23.736 18.3533333,22.1753333 C18.3533333,22.1188889 18.3655556,22.0686667 18.3688889,22.0137778 L12.6362222,19.1484444 C12.1433333,19.5624444 11.5173333,19.822 10.8237778,19.822 C9.264,19.822 8,18.5591111 8,17 C8,15.4393333 9.264,14.1753333 10.8237778,14.1753333 C11.5173333,14.1753333 12.144,14.4357778 12.6362222,14.8497778 L18.3688889,11.9844444 C18.3655556,11.9297778 18.3533333,11.8784444 18.3533333,11.822 C18.3533333,10.264 19.6155556,9 21.1762222,9 C22.736,9 24,10.264 24,11.822 C24,13.3828889 22.736,14.6466667 21.1762222,14.6466667 C20.4808889,14.6466667 19.8542222,14.3862222 19.3637778,13.9704444 L13.6311111,16.8377778 C13.6344444,16.8924444 13.6466667,16.9435556 13.6466667,17 Z" id="Fill-1" fill="#FFFFFF"></path>
            </g>
        </g>
    </g>
</svg>