<?xml version="1.0" encoding="UTF-8"?>
<svg width="15px" height="15px" viewBox="0 0 15 15" version="1.1" xmlns="http://www.w3.org/2000/svg" xmlns:xlink="http://www.w3.org/1999/xlink">
    <!-- Generator: Sketch 46.2 (44496) - http://www.bohemiancoding.com/sketch -->
    <title>Group 4</title>
    <desc>Created with Sketch.</desc>
    <defs></defs>
    <g id="Page-1" stroke="none" stroke-width="1" fill="none" fill-rule="evenodd">
        <g id="Blog-details" transform="translate(-1092.000000, -2224.000000)" fill="#C2C2C2">
            <g id="Group-4" transform="translate(1092.000000, 2224.000000)">
                <path d="M7.41477273,0 C3.31977273,0 0,3.31977273 0,7.41477273 C0,11.5097727 3.31977273,14.8295455 7.41477273,14.8295455 C11.5097727,14.8295455 14.8295455,11.5097727 14.8295455,7.41477273 C14.8295455,3.31977273 11.5097727,0 7.41477273,0 Z M7.41477273,13.9811163 C3.79404224,13.9811163 0.848429144,11.0355032 0.848429144,7.41477273 C0.848429144,3.79404224 3.79404224,0.848429144 7.41477273,0.848429144 C11.0355032,0.848429144 13.9811163,3.79404224 13.9811163,7.41477273 C13.9811163,11.0355032 11.0355032,13.9811163 7.41477273,13.9811163 Z" id="Shape"></path>
                <path d="M11.9487959,9.00710635 C12.1874323,8.95801544 12.3914664,9.17091316 12.3439095,9.40989044 C11.9818641,11.23222 10.0289664,12.6241518 7.67396636,12.6241518 C5.32646636,12.6241518 3.37834136,11.2409132 3.00743227,9.42710635 C2.95731864,9.18250407 3.16817091,8.96500407 3.41294364,9.01511771 C5.02919364,9.34545862 10.3541936,9.33454953 11.9487959,9.00710635 Z" id="Shape"></path>
                <ellipse id="Oval" cx="4.71727273" cy="5.06534091" rx="1" ry="1.06534091"></ellipse>
                <ellipse id="Oval" cx="10.7172727" cy="5.06534091" rx="1" ry="1.06534091"></ellipse>
            </g>
        </g>
    </g>
</svg>