<?xml version="1.0" encoding="UTF-8"?>
<svg width="17px" height="16px" viewBox="0 0 17 16" version="1.1" xmlns="http://www.w3.org/2000/svg" xmlns:xlink="http://www.w3.org/1999/xlink">
    <!-- Generator: Sketch 46.2 (44496) - http://www.bohemiancoding.com/sketch -->
    <title>Group 13</title>
    <desc>Created with Sketch.</desc>
    <defs></defs>
    <g id="Page-1" stroke="none" stroke-width="1" fill="none" fill-rule="evenodd" opacity="0.5">
        <g id="STYLE-CRAZE-1" transform="translate(-1155.000000, -3771.000000)" fill-rule="nonzero" fill="#FFFFFF">
            <g id="Group-13" transform="translate(1155.000000, 3771.000000)">
                <path d="M0.852682339,15.5336795 L2.93184328,15.5336795 C3.21868596,15.5336795 3.45119228,15.2978509 3.45119228,15.0069458 L3.45119228,5.79026533 C3.45119228,5.49933087 3.21868596,5.26356099 2.93184328,5.26356099 L0.852682339,5.26356099 C0.565810729,5.26356099 0.333333333,5.49933087 0.333333333,5.79026533 L0.333333333,15.0069458 C0.333333333,15.2978216 0.565810729,15.5336795 0.852682339,15.5336795 Z" id="Shape"></path>
                <path d="M0.852682339,3.64321889 L2.93184328,3.64321889 C3.21868596,3.64321889 3.45119228,3.40741967 3.45119228,3.11651455 L3.45119228,1.2440586 C3.45119228,0.953153477 3.21868596,0.717354251 2.93184328,0.717354251 L0.852682339,0.717354251 C0.565810729,0.717354251 0.333333333,0.953153477 0.333333333,1.2440586 L0.333333333,3.11651455 C0.333333333,3.40741967 0.565810729,3.64321889 0.852682339,3.64321889 Z" id="Shape"></path>
                <path d="M15.5443858,6.33258008 C15.2522194,5.94255478 14.8214057,5.62180797 14.2517709,5.37039834 C13.6821362,5.11916477 13.0533623,4.99345996 12.3654201,4.99345996 C10.9688776,4.99345996 9.78551417,5.53398479 8.81535865,6.61523986 C8.62231706,6.83038171 8.48196263,6.7833451 8.48196263,6.49241064 L8.48196263,5.79026533 C8.48196263,5.49933087 8.24942737,5.26356099 7.96258469,5.26356099 L6.10531163,5.26356099 C5.81844002,5.26356099 5.58596263,5.49933087 5.58596263,5.79026533 L5.58596263,15.0069458 C5.58596263,15.2978509 5.81846896,15.5336795 6.10531163,15.5336795 L8.18447257,15.5336795 C8.47134418,15.5336795 8.70382158,15.2978509 8.70382158,15.0069458 L8.70382158,11.8016198 C8.70382158,10.4662849 8.78332972,9.55099304 8.94234599,9.05589096 C9.1013044,8.56078887 9.39543822,8.16322246 9.82445811,7.86313302 C10.2535359,7.56304359 10.7379916,7.41292552 11.2780567,7.41292552 C11.6996697,7.41292552 12.0603207,7.51797296 12.3599518,7.72809718 C12.6595539,7.93819206 12.8759445,8.23250095 13.0090946,8.61143465 C13.1423026,8.99030967 13.2088487,9.8248793 13.2088487,11.1152609 L13.2088487,15.0069165 C13.2088487,15.2978216 13.4413261,15.5336502 13.7281688,15.5336502 L15.8073297,15.5336502 C16.0941724,15.5336502 16.3266498,15.2978216 16.3266498,15.0069165 L16.3266498,9.78734978 C16.3266498,8.86466354 16.2693044,8.15568134 16.1547583,7.66057926 C16.0402122,7.16547717 15.8367257,6.72281078 15.5443858,6.33258008 Z" id="Shape"></path>
            </g>
        </g>
    </g>
</svg>