<?xml version="1.0" encoding="UTF-8"?>
<svg width="17px" height="14px" viewBox="0 0 17 14" version="1.1" xmlns="http://www.w3.org/2000/svg" xmlns:xlink="http://www.w3.org/1999/xlink">
    <!-- Generator: Sketch 46.2 (44496) - http://www.bohemiancoding.com/sketch -->
    <title>Group 16</title>
    <desc>Created with Sketch.</desc>
    <defs></defs>
    <g id="Page-1" stroke="none" stroke-width="1" fill="none" fill-rule="evenodd" opacity="0.5">
        <g id="STYLE-CRAZE-1" transform="translate(-1126.000000, -3773.000000)" fill-rule="nonzero" fill="#FFFFFF">
            <g id="Group-16" transform="translate(1126.000000, 3773.000000)">
                <path d="M16.6666667,2.28515404 C16.0777778,2.54974003 15.4459085,2.72917922 14.7820131,2.80928932 C15.4598954,2.3976846 15.9787974,1.74482178 16.224732,0.969275461 C15.5888627,1.35044789 14.8869804,1.627228 14.1391111,1.77726875 C13.5402353,1.12946914 12.6883922,0.725976168 11.7435556,0.725976168 C9.93090196,0.725976168 8.46117647,2.21623073 8.46117647,4.05319605 C8.46117647,4.31372617 8.49016993,4.56818574 8.54616993,4.81151154 C5.81869281,4.67260456 3.40015686,3.3476069 1.78146405,1.3342244 C1.4985098,1.82490537 1.33754248,2.39665075 1.33754248,3.00696668 C1.33754248,4.16167074 1.91743791,5.18051635 2.79728105,5.77659697 C2.25937255,5.7583588 1.75346405,5.60831805 1.31056209,5.35892169 L1.31056209,5.40048775 C1.31056209,7.01239196 2.44235294,8.35766898 3.94305882,8.66384754 C3.66810458,8.73886791 3.37816993,8.78043397 3.07822222,8.78043397 C2.86627451,8.78043397 2.66130719,8.75914727 2.46033987,8.71858855 C2.87824837,10.0415715 4.09003922,11.0036349 5.52577778,11.0300114 C4.40298039,11.9221441 2.98724183,12.4523499 1.44954248,12.4523499 C1.18460131,12.4523499 0.923633987,12.4361265 0.66669281,12.406728 C2.11942484,13.3525944 3.84410458,13.904087 5.69775163,13.904087 C11.7356078,13.904087 15.036,8.8331603 15.036,4.43540233 L15.0249935,4.0045521 C15.6698562,3.53817985 16.2277386,2.95222566 16.6666667,2.28515404 Z" id="Shape"></path>
            </g>
        </g>
    </g>
</svg>