<?xml version="1.0" encoding="UTF-8"?>
<svg width="18px" height="16px" viewBox="0 0 18 16" version="1.1" xmlns="http://www.w3.org/2000/svg" xmlns:xlink="http://www.w3.org/1999/xlink">
    <!-- Generator: Sketch 46.2 (44496) - http://www.bohemiancoding.com/sketch -->
    <title>reply</title>
    <desc>Created with Sketch.</desc>
    <defs></defs>
    <g id="Page-1" stroke="none" stroke-width="1" fill="none" fill-rule="evenodd">
        <g id="Blog-details" transform="translate(-430.000000, -2378.000000)" fill-rule="nonzero" fill="#CCCCCC">
            <g id="reply" transform="translate(430.000000, 2378.000000)">
                <path d="M17.3696934,7.2259214 C16.2907433,4.54623581 13.3775676,3.20635808 8.62981643,3.20635808 L6.39246698,3.20635808 L6.39246698,0.653030568 C6.39246698,0.480034934 6.32918042,0.33041048 6.20271226,0.204122271 C6.07617414,0.0777641921 5.92647642,0.0145676856 5.75326926,0.0145676856 C5.58002712,0.0145676856 5.43018947,0.0777641921 5.30372131,0.204122271 L0.189754717,5.31077729 C0.0632865566,5.43724017 0,5.58679476 0,5.75968559 C0,5.93254148 0.0632865566,6.08209607 0.189754717,6.20848908 L5.30375629,11.3152838 C5.43036439,11.4415022 5.58020204,11.5049083 5.75330425,11.5049083 C5.92637146,11.5049083 6.07617414,11.4415371 6.20274725,11.3152838 C6.32925039,11.1890306 6.39250197,11.0393712 6.39250197,10.8664454 L6.39250197,8.31294323 L8.62985142,8.31294323 C9.28227319,8.31294323 9.86651061,8.33278603 10.3825287,8.37261135 C10.8985118,8.41254148 11.4115212,8.48401747 11.9207174,8.58721397 C12.4302284,8.69027074 12.8731293,8.83144105 13.2493852,9.0111441 C13.6255711,9.19084716 13.9768483,9.42183406 14.3031816,9.70431441 C14.6295499,9.98707424 14.8959202,10.322655 15.1024674,10.7117904 C15.3087347,11.100821 15.4702571,11.561083 15.5868597,12.0930655 C15.7032174,12.625083 15.7616761,13.2268996 15.7616761,13.8983057 C15.7616761,14.2639301 15.7449186,14.6730131 15.7117186,15.1251354 C15.7117186,15.1648559 15.7034623,15.2430393 15.6867048,15.359476 C15.6701572,15.4759127 15.661796,15.5639127 15.661796,15.6236507 C15.661796,15.7232489 15.6900633,15.8064279 15.7465629,15.8729432 C15.8033074,15.9393886 15.8816022,15.9725415 15.9814473,15.9725415 C16.0880094,15.9725415 16.1811376,15.9161223 16.2611116,15.8030044 C16.3075708,15.7432314 16.3507064,15.6700437 16.3909033,15.5835109 C16.4308903,15.4971878 16.4759151,15.3974847 16.5257327,15.2844017 C16.5757952,15.1713188 16.6107445,15.0918079 16.6306156,15.0451703 C17.4761855,13.150393 17.8990755,11.6510044 17.8990755,10.5471441 C17.8990055,9.22406987 17.7226498,8.11682096 17.3696934,7.2259214 Z" id="Shape"></path>
            </g>
        </g>
    </g>
</svg>